<svg width="786" height="140" viewBox="0 0 786 140" fill="none" xmlns="http://www.w3.org/2000/svg">
<path d="M0 0H199.233L245.439 39.5H45.2124L0 0Z" fill="#FFE704"/>
<path d="M232.521 0H431.754L477.96 39.5H277.734L232.521 0Z" fill="#002768"/>
<path d="M465.041 0H664.274L710.48 39.5H510.253L465.041 0Z" fill="#C00931"/>
<path d="M465.041 139.5H664.274L710.48 100H510.253L465.041 139.5Z" fill="#C00931"/>
<path d="M232.521 139.5H431.754L477.96 100H277.734L232.521 139.5Z" fill="#002768"/>
<path d="M0 139.5H199.233L245.439 100H45.2124L0 139.5Z" fill="#FFE704"/>
<path d="M421.817 106L424.829 115.328H434.575L426.69 121.093L429.702 130.422L421.817 124.657L413.932 130.422L416.944 121.093L409.059 115.328H418.805L421.817 106Z" fill="#F8F5F5"/>
<path d="M421.817 6L424.829 15.3283H434.575L426.69 21.0935L429.702 30.4217L421.817 24.6565L413.932 30.4217L416.944 21.0935L409.059 15.3283H418.805L421.817 6Z" fill="#F8F5F5"/>
<path d="M391.012 106L394.024 115.328H403.77L395.885 121.093L398.897 130.422L391.012 124.657L383.127 130.422L386.139 121.093L378.254 115.328H388.001L391.012 106Z" fill="#F8F5F5"/>
<path d="M391.012 6L394.024 15.3283H403.77L395.885 21.0935L398.897 30.4217L391.012 24.6565L383.127 30.4217L386.139 21.0935L378.254 15.3283H388.001L391.012 6Z" fill="#F8F5F5"/>
<path d="M360.208 106L363.219 115.328H372.966L365.081 121.093L368.093 130.422L360.208 124.657L352.323 130.422L355.334 121.093L347.45 115.328H357.196L360.208 106Z" fill="#F8F5F5"/>
<path d="M360.208 6L363.219 15.3283H372.966L365.081 21.0935L368.093 30.4217L360.208 24.6565L352.323 30.4217L355.334 21.0935L347.45 15.3283H357.196L360.208 6Z" fill="#F8F5F5"/>
<path d="M329.405 106L332.417 115.328H342.163L334.278 121.093L337.29 130.422L329.405 124.657L321.52 130.422L324.532 121.093L316.647 115.328H326.393L329.405 106Z" fill="#F8F5F5"/>
<path d="M329.405 6L332.417 15.3283H342.163L334.278 21.0935L337.29 30.4217L329.405 24.6565L321.52 30.4217L324.532 21.0935L316.647 15.3283H326.393L329.405 6Z" fill="#F8F5F5"/>
<path d="M298.6 106L301.612 115.328H311.358L303.473 121.093L306.485 130.422L298.6 124.657L290.715 130.422L293.727 121.093L285.842 115.328H295.588L298.6 106Z" fill="#F8F5F5"/>
<path d="M298.6 6L301.612 15.3283H311.358L303.473 21.0935L306.485 30.4217L298.6 24.6565L290.715 30.4217L293.727 21.0935L285.842 15.3283H295.588L298.6 6Z" fill="#F8F5F5"/>
<path d="M79.0362 83H71.6214L82.9194 50.2727H91.8363L103.118 83H95.7035L87.5057 57.7514H87.25L79.0362 83ZM78.5728 70.136H96.087V75.5373H78.5728V70.136ZM106.93 83V58.4545H113.417V62.7852H113.705C114.216 61.3469 115.069 60.2124 116.262 59.3814C117.455 58.5504 118.883 58.1349 120.545 58.1349C122.228 58.1349 123.661 58.5558 124.843 59.3974C126.026 60.2283 126.814 61.3576 127.208 62.7852H127.464C127.965 61.3789 128.87 60.255 130.181 59.4134C131.502 58.5611 133.062 58.1349 134.863 58.1349C137.153 58.1349 139.012 58.8647 140.44 60.3242C141.878 61.7731 142.597 63.8292 142.597 66.4925V83H135.806V67.8349C135.806 66.4712 135.443 65.4485 134.719 64.7667C133.994 64.0849 133.089 63.744 132.002 63.744C130.767 63.744 129.802 64.1381 129.11 64.9265C128.417 65.7042 128.071 66.7322 128.071 68.0107V83H121.471V67.6911C121.471 66.4872 121.125 65.5284 120.433 64.8146C119.751 64.1009 118.851 63.744 117.732 63.744C116.976 63.744 116.294 63.9357 115.687 64.3192C115.09 64.6921 114.616 65.2195 114.264 65.9013C113.913 66.5724 113.737 67.3608 113.737 68.2663V83H106.93ZM159.161 83.4794C156.636 83.4794 154.462 82.968 152.641 81.9453C150.83 80.9119 149.434 79.4524 148.454 77.5668C147.474 75.6705 146.984 73.4279 146.984 70.8391C146.984 68.3143 147.474 66.0984 148.454 64.1914C149.434 62.2844 150.814 60.7983 152.593 59.733C154.382 58.6676 156.481 58.1349 158.889 58.1349C160.508 58.1349 162.016 58.396 163.411 58.918C164.817 59.4293 166.043 60.2017 167.087 61.2351C168.141 62.2685 168.962 63.5682 169.548 65.1342C170.134 66.6896 170.426 68.5114 170.426 70.5994V72.4691H149.7V68.2504H164.018C164.018 67.2702 163.805 66.402 163.379 65.6456C162.953 64.8892 162.362 64.2979 161.605 63.8718C160.86 63.435 159.991 63.2166 159.001 63.2166C157.967 63.2166 157.051 63.4563 156.252 63.9357C155.464 64.4045 154.846 65.0384 154.398 65.8374C153.951 66.6257 153.722 67.5046 153.711 68.4741V72.4851C153.711 73.6996 153.935 74.7489 154.382 75.6332C154.841 76.5174 155.485 77.1992 156.316 77.6786C157.147 78.158 158.132 78.3977 159.272 78.3977C160.029 78.3977 160.721 78.2912 161.35 78.0781C161.978 77.8651 162.516 77.5455 162.964 77.1193C163.411 76.6932 163.752 76.1712 163.987 75.5533L170.283 75.9688C169.963 77.4815 169.308 78.8026 168.317 79.9318C167.337 81.0504 166.069 81.924 164.514 82.5526C162.969 83.1705 161.185 83.4794 159.161 83.4794ZM174.869 83V58.4545H181.469V62.7372H181.724C182.172 61.2138 182.923 60.0632 183.978 59.2855C185.032 58.4972 186.247 58.103 187.621 58.103C187.962 58.103 188.33 58.1243 188.724 58.1669C189.118 58.2095 189.464 58.2681 189.762 58.3427V64.3832C189.443 64.2873 189.001 64.2021 188.436 64.1275C187.871 64.0529 187.355 64.0156 186.886 64.0156C185.885 64.0156 184.99 64.234 184.201 64.6708C183.424 65.0969 182.806 65.6935 182.348 66.4606C181.9 67.2276 181.676 68.1119 181.676 69.1133V83H174.869ZM193.282 83V58.4545H200.09V83H193.282ZM196.702 55.2905C195.69 55.2905 194.821 54.9549 194.097 54.2837C193.383 53.6019 193.026 52.7869 193.026 51.8388C193.026 50.9013 193.383 50.0969 194.097 49.4258C194.821 48.744 195.69 48.4031 196.702 48.4031C197.714 48.4031 198.577 48.744 199.291 49.4258C200.015 50.0969 200.377 50.9013 200.377 51.8388C200.377 52.7869 200.015 53.6019 199.291 54.2837C198.577 54.9549 197.714 55.2905 196.702 55.2905ZM216.633 83.4794C214.119 83.4794 211.956 82.9467 210.145 81.8814C208.345 80.8054 206.96 79.3139 205.99 77.407C205.031 75.5 204.552 73.3054 204.552 70.8232C204.552 68.3089 205.037 66.1037 206.006 64.2074C206.986 62.3004 208.377 60.8143 210.177 59.7489C211.977 58.6729 214.119 58.1349 216.601 58.1349C218.742 58.1349 220.617 58.5238 222.226 59.3015C223.835 60.0792 225.108 61.1712 226.045 62.5774C226.983 63.9837 227.499 65.6349 227.595 67.5312H221.171C220.99 66.3061 220.511 65.3207 219.733 64.5749C218.966 63.8185 217.959 63.4403 216.713 63.4403C215.658 63.4403 214.737 63.728 213.948 64.3033C213.171 64.8679 212.563 65.6935 212.127 66.7802C211.69 67.8668 211.471 69.1825 211.471 70.7273C211.471 72.2933 211.684 73.625 212.111 74.7223C212.547 75.8196 213.16 76.6559 213.948 77.2312C214.737 77.8065 215.658 78.0941 216.713 78.0941C217.491 78.0941 218.188 77.9343 218.806 77.6147C219.435 77.2951 219.952 76.8317 220.356 76.2244C220.772 75.6065 221.044 74.8661 221.171 74.0032H227.595C227.489 75.8782 226.977 77.5295 226.061 78.957C225.156 80.3739 223.904 81.4819 222.306 82.2809C220.708 83.0799 218.817 83.4794 216.633 83.4794ZM238.953 83.4634C237.387 83.4634 235.992 83.1918 234.766 82.6484C233.541 82.0945 232.572 81.2795 231.858 80.2035C231.155 79.1168 230.803 77.7638 230.803 76.1445C230.803 74.7809 231.054 73.6357 231.554 72.7088C232.055 71.782 232.737 71.0362 233.6 70.4716C234.463 69.907 235.443 69.4808 236.54 69.1932C237.648 68.9055 238.809 68.7031 240.024 68.5859C241.451 68.4368 242.602 68.2983 243.476 68.1705C244.349 68.032 244.983 67.8295 245.377 67.5632C245.771 67.2969 245.968 66.9027 245.968 66.3807V66.2848C245.968 65.2727 245.649 64.4897 245.01 63.9357C244.381 63.3817 243.486 63.1048 242.325 63.1048C241.1 63.1048 240.125 63.3764 239.401 63.9197C238.676 64.4524 238.197 65.1236 237.962 65.9332L231.666 65.4219C231.986 63.9304 232.614 62.6413 233.552 61.5547C234.489 60.4574 235.699 59.6158 237.179 59.0298C238.671 58.4332 240.397 58.1349 242.357 58.1349C243.721 58.1349 245.026 58.2947 246.272 58.6143C247.529 58.9339 248.642 59.4293 249.612 60.1005C250.592 60.7717 251.364 61.6346 251.929 62.6893C252.494 63.7333 252.776 64.9851 252.776 66.4446V83H246.32V79.5962H246.128C245.734 80.3633 245.207 81.0398 244.546 81.6257C243.886 82.201 243.092 82.6538 242.165 82.984C241.238 83.3036 240.168 83.4634 238.953 83.4634ZM240.903 78.7653C241.904 78.7653 242.788 78.5682 243.555 78.174C244.323 77.7692 244.924 77.2259 245.361 76.544C245.798 75.8622 246.016 75.0898 246.016 74.2269V71.6222C245.803 71.7607 245.51 71.8885 245.138 72.0057C244.775 72.1122 244.365 72.2134 243.907 72.3093C243.449 72.3945 242.991 72.4744 242.533 72.549C242.075 72.6129 241.659 72.6715 241.286 72.7248C240.487 72.842 239.79 73.0284 239.193 73.2841C238.596 73.5398 238.133 73.886 237.803 74.3228C237.472 74.7489 237.307 75.2816 237.307 75.9208C237.307 76.8477 237.643 77.5561 238.314 78.0462C238.996 78.5256 239.859 78.7653 240.903 78.7653ZM264.865 68.8097V83H258.057V58.4545H264.545V62.7852H264.833C265.376 61.3576 266.287 60.2283 267.566 59.3974C268.844 58.5558 270.394 58.1349 272.216 58.1349C273.92 58.1349 275.407 58.5078 276.674 59.2536C277.942 59.9993 278.927 61.0646 279.631 62.4496C280.334 63.8239 280.685 65.4645 280.685 67.3714V83H273.878V68.5859C273.888 67.0838 273.505 65.9119 272.727 65.0703C271.949 64.218 270.879 63.7919 269.515 63.7919C268.599 63.7919 267.789 63.989 267.086 64.3832C266.394 64.7773 265.85 65.3526 265.456 66.109C265.073 66.8548 264.876 67.755 264.865 68.8097ZM325.47 61.7305H318.47C318.342 60.8249 318.081 60.0206 317.687 59.3175C317.293 58.6037 316.787 57.9964 316.169 57.4957C315.551 56.995 314.837 56.6115 314.028 56.3452C313.229 56.0788 312.361 55.9457 311.423 55.9457C309.729 55.9457 308.254 56.3665 306.997 57.2081C305.739 58.0391 304.765 59.2536 304.072 60.8516C303.38 62.4389 303.033 64.3672 303.033 66.6364C303.033 68.9695 303.38 70.9297 304.072 72.517C304.775 74.1044 305.755 75.3029 307.013 76.1126C308.27 76.9222 309.724 77.3271 311.375 77.3271C312.302 77.3271 313.16 77.2045 313.948 76.9595C314.747 76.7145 315.455 76.3576 316.073 75.8888C316.691 75.4094 317.203 74.8288 317.607 74.147C318.023 73.4652 318.31 72.6875 318.47 71.8139L325.47 71.8459C325.288 73.348 324.836 74.7969 324.111 76.1925C323.397 77.5774 322.433 78.8185 321.219 79.9158C320.015 81.0025 318.577 81.8654 316.904 82.5046C315.242 83.1332 313.362 83.4474 311.263 83.4474C308.344 83.4474 305.734 82.7869 303.433 81.4659C301.142 80.1449 299.331 78.2326 298 75.729C296.679 73.2255 296.018 70.1946 296.018 66.6364C296.018 63.0675 296.689 60.0312 298.032 57.5277C299.374 55.0241 301.196 53.1172 303.497 51.8068C305.798 50.4858 308.387 49.8253 311.263 49.8253C313.16 49.8253 314.917 50.0916 316.537 50.6243C318.167 51.157 319.61 51.9347 320.867 52.9574C322.124 53.9695 323.147 55.2106 323.935 56.6808C324.734 58.1509 325.246 59.8342 325.47 61.7305ZM341.394 83.4794C338.911 83.4794 336.765 82.9521 334.954 81.8974C333.153 80.832 331.763 79.3512 330.783 77.4549C329.803 75.5479 329.313 73.3374 329.313 70.8232C329.313 68.2876 329.803 66.0717 330.783 64.1754C331.763 62.2685 333.153 60.7876 334.954 59.733C336.765 58.6676 338.911 58.1349 341.394 58.1349C343.876 58.1349 346.017 58.6676 347.818 59.733C349.629 60.7876 351.024 62.2685 352.005 64.1754C352.985 66.0717 353.475 68.2876 353.475 70.8232C353.475 73.3374 352.985 75.5479 352.005 77.4549C351.024 79.3512 349.629 80.832 347.818 81.8974C346.017 82.9521 343.876 83.4794 341.394 83.4794ZM341.426 78.206C342.555 78.206 343.498 77.8864 344.254 77.2472C345.011 76.5973 345.581 75.7131 345.964 74.5945C346.358 73.4759 346.555 72.2028 346.555 70.7752C346.555 69.3477 346.358 68.0746 345.964 66.956C345.581 65.8374 345.011 64.9531 344.254 64.3033C343.498 63.6534 342.555 63.3285 341.426 63.3285C340.286 63.3285 339.327 63.6534 338.549 64.3033C337.782 64.9531 337.202 65.8374 336.807 66.956C336.424 68.0746 336.232 69.3477 336.232 70.7752C336.232 72.2028 336.424 73.4759 336.807 74.5945C337.202 75.7131 337.782 76.5973 338.549 77.2472C339.327 77.8864 340.286 78.206 341.426 78.206ZM357.901 83V58.4545H364.389V62.7852H364.677C365.188 61.3469 366.04 60.2124 367.234 59.3814C368.427 58.5504 369.854 58.1349 371.516 58.1349C373.199 58.1349 374.632 58.5558 375.815 59.3974C376.997 60.2283 377.786 61.3576 378.18 62.7852H378.436C378.936 61.3789 379.842 60.255 381.152 59.4134C382.473 58.5611 384.034 58.1349 385.834 58.1349C388.125 58.1349 389.984 58.8647 391.411 60.3242C392.85 61.7731 393.569 63.8292 393.569 66.4925V83H386.777V67.8349C386.777 66.4712 386.415 65.4485 385.691 64.7667C384.966 64.0849 384.061 63.744 382.974 63.744C381.738 63.744 380.774 64.1381 380.082 64.9265C379.389 65.7042 379.043 66.7322 379.043 68.0107V83H372.443V67.6911C372.443 66.4872 372.097 65.5284 371.404 64.8146C370.723 64.1009 369.822 63.744 368.704 63.744C367.947 63.744 367.266 63.9357 366.658 64.3192C366.062 64.6921 365.588 65.2195 365.236 65.9013C364.884 66.5724 364.709 67.3608 364.709 68.2663V83H357.901ZM398.946 92.2045V58.4545H405.658V62.5774H405.961C406.26 61.9169 406.691 61.2457 407.256 60.5639C407.831 59.8714 408.577 59.2962 409.493 58.8381C410.42 58.3693 411.57 58.1349 412.945 58.1349C414.734 58.1349 416.386 58.6037 417.899 59.5412C419.411 60.468 420.62 61.869 421.526 63.744C422.432 65.6083 422.884 67.9467 422.884 70.7592C422.884 73.4972 422.442 75.8089 421.558 77.6946C420.684 79.5696 419.491 80.9918 417.978 81.9613C416.476 82.9201 414.793 83.3995 412.929 83.3995C411.608 83.3995 410.484 83.1811 409.557 82.7443C408.641 82.3075 407.89 81.7589 407.304 81.0984C406.718 80.4272 406.27 79.7507 405.961 79.0689H405.754V92.2045H398.946ZM405.61 70.7273C405.61 72.1868 405.812 73.4599 406.217 74.5465C406.622 75.6332 407.208 76.4801 407.975 77.0874C408.742 77.6839 409.674 77.9822 410.771 77.9822C411.879 77.9822 412.817 77.6786 413.584 77.0714C414.351 76.4535 414.932 75.6012 415.326 74.5146C415.731 73.4173 415.933 72.1548 415.933 70.7273C415.933 69.3104 415.736 68.0639 415.342 66.9879C414.948 65.9119 414.367 65.0703 413.6 64.4631C412.833 63.8558 411.89 63.5522 410.771 63.5522C409.663 63.5522 408.726 63.8452 407.959 64.4311C407.203 65.017 406.622 65.848 406.217 66.924C405.812 68 405.61 69.2678 405.61 70.7273ZM434.23 50.2727V83H427.423V50.2727H434.23ZM450.869 83.4794C448.345 83.4794 446.171 82.968 444.35 81.9453C442.539 80.9119 441.143 79.4524 440.163 77.5668C439.183 75.6705 438.693 73.4279 438.693 70.8391C438.693 68.3143 439.183 66.0984 440.163 64.1914C441.143 62.2844 442.523 60.7983 444.302 59.733C446.091 58.6676 448.19 58.1349 450.598 58.1349C452.217 58.1349 453.725 58.396 455.12 58.918C456.526 59.4293 457.752 60.2017 458.796 61.2351C459.85 62.2685 460.671 63.5682 461.257 65.1342C461.843 66.6896 462.135 68.5114 462.135 70.5994V72.4691H441.409V68.2504H455.727C455.727 67.2702 455.514 66.402 455.088 65.6456C454.662 64.8892 454.071 64.2979 453.314 63.8718C452.569 63.435 451.7 63.2166 450.71 63.2166C449.676 63.2166 448.76 63.4563 447.961 63.9357C447.173 64.4045 446.555 65.0384 446.107 65.8374C445.66 66.6257 445.431 67.5046 445.42 68.4741V72.4851C445.42 73.6996 445.644 74.7489 446.091 75.6332C446.55 76.5174 447.194 77.1992 448.025 77.6786C448.856 78.158 449.841 78.3977 450.981 78.3977C451.738 78.3977 452.43 78.2912 453.059 78.0781C453.687 77.8651 454.225 77.5455 454.673 77.1193C455.12 76.6932 455.461 76.1712 455.695 75.5533L461.992 75.9688C461.672 77.4815 461.017 78.8026 460.026 79.9318C459.046 81.0504 457.778 81.924 456.223 82.5526C454.678 83.1705 452.894 83.4794 450.869 83.4794ZM479.634 58.4545V63.5682H464.852V58.4545H479.634ZM468.208 52.5739H475.015V75.4574C475.015 76.0859 475.111 76.576 475.303 76.9276C475.495 77.2685 475.761 77.5082 476.102 77.6467C476.454 77.7852 476.858 77.8544 477.317 77.8544C477.636 77.8544 477.956 77.8278 478.275 77.7745C478.595 77.7106 478.84 77.6626 479.01 77.6307L480.081 82.6964C479.74 82.8029 479.261 82.9254 478.643 83.0639C478.025 83.2131 477.274 83.3036 476.39 83.3356C474.749 83.3995 473.311 83.1811 472.075 82.6804C470.85 82.1797 469.896 81.402 469.215 80.3473C468.533 79.2926 468.197 77.9609 468.208 76.3523V52.5739ZM484.068 83V58.4545H490.876V83H484.068ZM487.488 55.2905C486.476 55.2905 485.608 54.9549 484.883 54.2837C484.169 53.6019 483.812 52.7869 483.812 51.8388C483.812 50.9013 484.169 50.0969 484.883 49.4258C485.608 48.744 486.476 48.4031 487.488 48.4031C488.5 48.4031 489.363 48.744 490.077 49.4258C490.801 50.0969 491.163 50.9013 491.163 51.8388C491.163 52.7869 490.801 53.6019 490.077 54.2837C489.363 54.9549 488.5 55.2905 487.488 55.2905ZM507.419 83.4794C504.937 83.4794 502.79 82.9521 500.979 81.8974C499.179 80.832 497.788 79.3512 496.808 77.4549C495.828 75.5479 495.338 73.3374 495.338 70.8232C495.338 68.2876 495.828 66.0717 496.808 64.1754C497.788 62.2685 499.179 60.7876 500.979 59.733C502.79 58.6676 504.937 58.1349 507.419 58.1349C509.901 58.1349 512.043 58.6676 513.843 59.733C515.654 60.7876 517.05 62.2685 518.03 64.1754C519.01 66.0717 519.5 68.2876 519.5 70.8232C519.5 73.3374 519.01 75.5479 518.03 77.4549C517.05 79.3512 515.654 80.832 513.843 81.8974C512.043 82.9521 509.901 83.4794 507.419 83.4794ZM507.451 78.206C508.58 78.206 509.523 77.8864 510.28 77.2472C511.036 76.5973 511.606 75.7131 511.989 74.5945C512.384 73.4759 512.581 72.2028 512.581 70.7752C512.581 69.3477 512.384 68.0746 511.989 66.956C511.606 65.8374 511.036 64.9531 510.28 64.3033C509.523 63.6534 508.58 63.3285 507.451 63.3285C506.311 63.3285 505.352 63.6534 504.575 64.3033C503.808 64.9531 503.227 65.8374 502.833 66.956C502.449 68.0746 502.258 69.3477 502.258 70.7752C502.258 72.2028 502.449 73.4759 502.833 74.5945C503.227 75.7131 503.808 76.5973 504.575 77.2472C505.352 77.8864 506.311 78.206 507.451 78.206ZM530.734 68.8097V83H523.927V58.4545H530.415V62.7852H530.702C531.245 61.3576 532.156 60.2283 533.435 59.3974C534.713 58.5558 536.263 58.1349 538.085 58.1349C539.79 58.1349 541.276 58.5078 542.543 59.2536C543.811 59.9993 544.797 61.0646 545.5 62.4496C546.203 63.8239 546.554 65.4645 546.554 67.3714V83H539.747V68.5859C539.758 67.0838 539.374 65.9119 538.596 65.0703C537.819 64.218 536.748 63.7919 535.384 63.7919C534.468 63.7919 533.658 63.989 532.955 64.3832C532.263 64.7773 531.72 65.3526 531.325 66.109C530.942 66.8548 530.745 67.755 530.734 68.8097ZM561.216 55.9776V50.2727H588.095V55.9776H578.075V83H571.236V55.9776H561.216ZM599.924 83.4794C597.442 83.4794 595.295 82.9521 593.484 81.8974C591.684 80.832 590.293 79.3512 589.313 77.4549C588.333 75.5479 587.843 73.3374 587.843 70.8232C587.843 68.2876 588.333 66.0717 589.313 64.1754C590.293 62.2685 591.684 60.7876 593.484 59.733C595.295 58.6676 597.442 58.1349 599.924 58.1349C602.406 58.1349 604.548 58.6676 606.348 59.733C608.159 60.7876 609.555 62.2685 610.535 64.1754C611.515 66.0717 612.005 68.2876 612.005 70.8232C612.005 73.3374 611.515 75.5479 610.535 77.4549C609.555 79.3512 608.159 80.832 606.348 81.8974C604.548 82.9521 602.406 83.4794 599.924 83.4794ZM599.956 78.206C601.085 78.206 602.028 77.8864 602.784 77.2472C603.541 76.5973 604.111 75.7131 604.494 74.5945C604.888 73.4759 605.086 72.2028 605.086 70.7752C605.086 69.3477 604.888 68.0746 604.494 66.956C604.111 65.8374 603.541 64.9531 602.784 64.3033C602.028 63.6534 601.085 63.3285 599.956 63.3285C598.816 63.3285 597.857 63.6534 597.08 64.3033C596.313 64.9531 595.732 65.8374 595.338 66.956C594.954 68.0746 594.762 69.3477 594.762 70.7752C594.762 72.2028 594.954 73.4759 595.338 74.5945C595.732 75.7131 596.313 76.5973 597.08 77.2472C597.857 77.8864 598.816 78.206 599.956 78.206ZM627.522 83.4794C625.039 83.4794 622.893 82.9521 621.082 81.8974C619.281 80.832 617.891 79.3512 616.911 77.4549C615.931 75.5479 615.441 73.3374 615.441 70.8232C615.441 68.2876 615.931 66.0717 616.911 64.1754C617.891 62.2685 619.281 60.7876 621.082 59.733C622.893 58.6676 625.039 58.1349 627.522 58.1349C630.004 58.1349 632.145 58.6676 633.946 59.733C635.757 60.7876 637.152 62.2685 638.132 64.1754C639.113 66.0717 639.603 68.2876 639.603 70.8232C639.603 73.3374 639.113 75.5479 638.132 77.4549C637.152 79.3512 635.757 80.832 633.946 81.8974C632.145 82.9521 630.004 83.4794 627.522 83.4794ZM627.554 78.206C628.683 78.206 629.626 77.8864 630.382 77.2472C631.138 76.5973 631.708 75.7131 632.092 74.5945C632.486 73.4759 632.683 72.2028 632.683 70.7752C632.683 69.3477 632.486 68.0746 632.092 66.956C631.708 65.8374 631.138 64.9531 630.382 64.3033C629.626 63.6534 628.683 63.3285 627.554 63.3285C626.414 63.3285 625.455 63.6534 624.677 64.3033C623.91 64.9531 623.33 65.8374 622.935 66.956C622.552 68.0746 622.36 69.3477 622.36 70.7752C622.36 72.2028 622.552 73.4759 622.935 74.5945C623.33 75.7131 623.91 76.5973 624.677 77.2472C625.455 77.8864 626.414 78.206 627.554 78.206ZM650.837 50.2727V83H644.029V50.2727H650.837ZM676.712 65.4538L670.48 65.8374C670.374 65.3047 670.145 64.8253 669.793 64.3991C669.441 63.9624 668.978 63.6161 668.403 63.3604C667.838 63.0941 667.162 62.9609 666.373 62.9609C665.319 62.9609 664.429 63.1847 663.705 63.6321C662.98 64.0689 662.618 64.6548 662.618 65.3899C662.618 65.9759 662.852 66.4712 663.321 66.8761C663.79 67.2809 664.594 67.6058 665.734 67.8509L670.177 68.7457C672.563 69.2358 674.342 70.0241 675.514 71.1108C676.686 72.1974 677.272 73.625 677.272 75.3935C677.272 77.0021 676.798 78.4137 675.85 79.6282C674.912 80.8427 673.623 81.7908 671.982 82.4727C670.352 83.1438 668.472 83.4794 666.341 83.4794C663.092 83.4794 660.503 82.8029 658.575 81.4499C656.657 80.0863 655.533 78.2326 655.203 75.8888L661.899 75.5373C662.101 76.5281 662.591 77.2844 663.369 77.8065C664.147 78.3178 665.143 78.5735 666.357 78.5735C667.551 78.5735 668.509 78.3445 669.234 77.8864C669.969 77.4176 670.342 76.8157 670.352 76.0806C670.342 75.4627 670.081 74.9567 669.569 74.5625C669.058 74.1577 668.27 73.8487 667.204 73.6357L662.954 72.7887C660.557 72.3093 658.772 71.4783 657.6 70.2958C656.439 69.1133 655.858 67.6058 655.858 65.7734C655.858 64.1967 656.285 62.8384 657.137 61.6985C658 60.5586 659.209 59.6797 660.764 59.0618C662.33 58.4439 664.163 58.1349 666.261 58.1349C669.362 58.1349 671.801 58.7901 673.58 60.1005C675.37 61.4109 676.414 63.1953 676.712 65.4538Z" fill="black"/>
</svg>
